<?xml version="1.0" encoding="UTF-8" standalone="no"?>
<!DOCTYPE svg PUBLIC "-//W3C//DTD SVG 1.1//EN"
 "http://www.w3.org/Graphics/SVG/1.1/DTD/svg11.dtd">
<!-- Generated by graphviz version 2.40.1 (20161225.0304)
 -->
<!-- Title: dependencies Pages: 1 -->
<svg width="1212pt" height="284pt"
 viewBox="0.00 0.00 1212.00 284.00" xmlns="http://www.w3.org/2000/svg" xmlns:xlink="http://www.w3.org/1999/xlink">
<g id="graph0" class="graph" transform="scale(1 1) rotate(0) translate(4 280)">
<title>dependencies</title>
<polygon fill="#ffffff" stroke="transparent" points="-4,4 -4,-280 1208,-280 1208,4 -4,4"/>
<text text-anchor="start" x="581.0091" y="-42.4" font-family="sans-serif" font-weight="bold" font-size="14.00" fill="#000000">Legend</text>
<polygon fill="#ffffb3" stroke="transparent" points="368,-10 368,-30 388,-30 388,-10 368,-10"/>
<text text-anchor="start" x="391.629" y="-15.4" font-family="sans-serif" font-size="14.00" fill="#000000"> &#160;Declarations</text>
<polygon fill="#8dd3c7" stroke="transparent" points="481,-10 481,-30 501,-30 501,-10 481,-10"/>
<text text-anchor="start" x="504.7251" y="-15.4" font-family="sans-serif" font-size="14.00" fill="#000000"> &#160;Module</text>
<polygon fill="#80b1d3" stroke="transparent" points="567,-10 567,-30 587,-30 587,-10 567,-10"/>
<text text-anchor="start" x="590.7812" y="-15.4" font-family="sans-serif" font-size="14.00" fill="#000000"> &#160;Bootstrap</text>
<polygon fill="#fdb462" stroke="transparent" points="664,-10 664,-30 684,-30 684,-10 664,-10"/>
<text text-anchor="start" x="687.6732" y="-15.4" font-family="sans-serif" font-size="14.00" fill="#000000"> &#160;Providers</text>
<polygon fill="#fb8072" stroke="transparent" points="760,-10 760,-30 780,-30 780,-10 760,-10"/>
<text text-anchor="start" x="783.7258" y="-15.4" font-family="sans-serif" font-size="14.00" fill="#000000"> &#160;Exports</text>
<g id="clust1" class="cluster">
<title>cluster_AppModule</title>
<polygon fill="none" stroke="#000000" stroke-dasharray="1,5" points="8,-70 8,-268 1196,-268 1196,-70 8,-70"/>
</g>
<g id="clust2" class="cluster">
<title>cluster_AppModule_declarations</title>
<polygon fill="none" stroke="#000000" points="16,-78 16,-130 1188,-130 1188,-78 16,-78"/>
</g>
<g id="clust12" class="cluster">
<title>cluster_AppModule_bootstrap</title>
<polygon fill="none" stroke="#000000" points="595,-208 595,-260 719,-260 719,-208 595,-208"/>
</g>
<!-- AppComponent -->
<g id="node1" class="node">
<title>AppComponent</title>
<polygon fill="#ffffb3" stroke="#000000" points="1179.9399,-122 1074.0601,-122 1074.0601,-86 1179.9399,-86 1179.9399,-122"/>
<text text-anchor="middle" x="1127" y="-99.8" font-family="Times,serif" font-size="14.00" fill="#000000">AppComponent</text>
</g>
<!-- AppModule -->
<g id="node8" class="node">
<title>AppModule</title>
<polygon fill="#8dd3c7" stroke="#000000" points="698.6571,-187 695.6571,-191 674.6571,-191 671.6571,-187 615.3429,-187 615.3429,-151 698.6571,-151 698.6571,-187"/>
<text text-anchor="middle" x="657" y="-164.8" font-family="Times,serif" font-size="14.00" fill="#000000">AppModule</text>
</g>
<!-- AppComponent&#45;&gt;AppModule -->
<g id="edge1" class="edge">
<title>AppComponent&#45;&gt;AppModule</title>
<path fill="none" stroke="#000000" d="M1127,-122.2921C1127,-144.2057 1127,-178 1127,-178 1127,-178 708.7094,-178 708.7094,-178"/>
<polygon fill="#000000" stroke="#000000" points="708.7094,-174.5001 698.7094,-178 708.7093,-181.5001 708.7094,-174.5001"/>
</g>
<!-- BarraComponent -->
<g id="node2" class="node">
<title>BarraComponent</title>
<polygon fill="#ffffb3" stroke="#000000" points="1056.4202,-122 943.5798,-122 943.5798,-86 1056.4202,-86 1056.4202,-122"/>
<text text-anchor="middle" x="1000" y="-99.8" font-family="Times,serif" font-size="14.00" fill="#000000">BarraComponent</text>
</g>
<!-- BarraComponent&#45;&gt;AppModule -->
<g id="edge2" class="edge">
<title>BarraComponent&#45;&gt;AppModule</title>
<path fill="none" stroke="#000000" d="M1000,-122.1061C1000,-141.3391 1000,-169 1000,-169 1000,-169 708.7156,-169 708.7156,-169"/>
<polygon fill="#000000" stroke="#000000" points="708.7157,-165.5001 698.7156,-169 708.7156,-172.5001 708.7157,-165.5001"/>
</g>
<!-- CadastroNoticiaComponent -->
<g id="node3" class="node">
<title>CadastroNoticiaComponent</title>
<polygon fill="#ffffb3" stroke="#000000" points="926.3019,-122 753.6981,-122 753.6981,-86 926.3019,-86 926.3019,-122"/>
<text text-anchor="middle" x="840" y="-99.8" font-family="Times,serif" font-size="14.00" fill="#000000">CadastroNoticiaComponent</text>
</g>
<!-- CadastroNoticiaComponent&#45;&gt;AppModule -->
<g id="edge3" class="edge">
<title>CadastroNoticiaComponent&#45;&gt;AppModule</title>
<path fill="none" stroke="#000000" d="M840,-122.027C840,-138.3976 840,-160 840,-160 840,-160 708.9839,-160 708.9839,-160"/>
<polygon fill="#000000" stroke="#000000" points="708.9839,-156.5001 698.9839,-160 708.9839,-163.5001 708.9839,-156.5001"/>
</g>
<!-- EditarNoticiaComponent -->
<g id="node4" class="node">
<title>EditarNoticiaComponent</title>
<polygon fill="#ffffb3" stroke="#000000" points="735.2492,-122 578.7508,-122 578.7508,-86 735.2492,-86 735.2492,-122"/>
<text text-anchor="middle" x="657" y="-99.8" font-family="Times,serif" font-size="14.00" fill="#000000">EditarNoticiaComponent</text>
</g>
<!-- EditarNoticiaComponent&#45;&gt;AppModule -->
<g id="edge4" class="edge">
<title>EditarNoticiaComponent&#45;&gt;AppModule</title>
<path fill="none" stroke="#000000" d="M657,-122.1061C657,-122.1061 657,-140.991 657,-140.991"/>
<polygon fill="#000000" stroke="#000000" points="653.5001,-140.9909 657,-150.991 660.5001,-140.991 653.5001,-140.9909"/>
</g>
<!-- LeitorNoticiasComponent -->
<g id="node5" class="node">
<title>LeitorNoticiasComponent</title>
<polygon fill="#ffffb3" stroke="#000000" points="561.1937,-122 398.8063,-122 398.8063,-86 561.1937,-86 561.1937,-122"/>
<text text-anchor="middle" x="480" y="-99.8" font-family="Times,serif" font-size="14.00" fill="#000000">LeitorNoticiasComponent</text>
</g>
<!-- LeitorNoticiasComponent&#45;&gt;AppModule -->
<g id="edge5" class="edge">
<title>LeitorNoticiasComponent&#45;&gt;AppModule</title>
<path fill="none" stroke="#000000" d="M480,-122.027C480,-138.3976 480,-160 480,-160 480,-160 605.0535,-160 605.0535,-160"/>
<polygon fill="#000000" stroke="#000000" points="605.0535,-163.5001 615.0535,-160 605.0534,-156.5001 605.0535,-163.5001"/>
</g>
<!-- ListarNoticiasComponent -->
<g id="node6" class="node">
<title>ListarNoticiasComponent</title>
<polygon fill="#ffffb3" stroke="#000000" points="381.1386,-122 220.8614,-122 220.8614,-86 381.1386,-86 381.1386,-122"/>
<text text-anchor="middle" x="301" y="-99.8" font-family="Times,serif" font-size="14.00" fill="#000000">ListarNoticiasComponent</text>
</g>
<!-- ListarNoticiasComponent&#45;&gt;AppModule -->
<g id="edge6" class="edge">
<title>ListarNoticiasComponent&#45;&gt;AppModule</title>
<path fill="none" stroke="#000000" d="M301,-122.1061C301,-141.3391 301,-169 301,-169 301,-169 605.1154,-169 605.1154,-169"/>
<polygon fill="#000000" stroke="#000000" points="605.1155,-172.5001 615.1154,-169 605.1154,-165.5001 605.1155,-172.5001"/>
</g>
<!-- NoticiasRecentesComponent -->
<g id="node7" class="node">
<title>NoticiasRecentesComponent</title>
<polygon fill="#ffffb3" stroke="#000000" points="202.0155,-122 23.9845,-122 23.9845,-86 202.0155,-86 202.0155,-122"/>
<text text-anchor="middle" x="113" y="-99.8" font-family="Times,serif" font-size="14.00" fill="#000000">NoticiasRecentesComponent</text>
</g>
<!-- NoticiasRecentesComponent&#45;&gt;AppModule -->
<g id="edge7" class="edge">
<title>NoticiasRecentesComponent&#45;&gt;AppModule</title>
<path fill="none" stroke="#000000" d="M113,-122.2921C113,-144.2057 113,-178 113,-178 113,-178 605.2165,-178 605.2165,-178"/>
<polygon fill="#000000" stroke="#000000" points="605.2166,-181.5001 615.2165,-178 605.2165,-174.5001 605.2166,-181.5001"/>
</g>
<!-- AppComponent  -->
<g id="node9" class="node">
<title>AppComponent </title>
<polygon fill="#80b1d3" stroke="#000000" points="711.439,-252 602.561,-252 602.561,-216 711.439,-216 711.439,-252"/>
<text text-anchor="middle" x="657" y="-229.8" font-family="Times,serif" font-size="14.00" fill="#000000">AppComponent </text>
</g>
<!-- AppModule&#45;&gt;AppComponent  -->
<g id="edge8" class="edge">
<title>AppModule&#45;&gt;AppComponent </title>
<path fill="none" stroke="#000000" stroke-dasharray="1,5" d="M657,-187.1061C657,-187.1061 657,-205.991 657,-205.991"/>
<polygon fill="#000000" stroke="#000000" points="653.5001,-205.9909 657,-215.991 660.5001,-205.991 653.5001,-205.9909"/>
</g>
</g>
</svg>
